<svg xmlns="http://www.w3.org/2000/svg" version="1.1" xmlns:xlink="http://www.w3.org/1999/xlink" width="200" height="200"><svg xmlns="http://www.w3.org/2000/svg" version="1.1" xmlns:xlink="http://www.w3.org/1999/xlink" width="200" height="200"><svg xmlns="http://www.w3.org/2000/svg" version="1.1" xmlns:xlink="http://www.w3.org/1999/xlink" viewBox="0 0 200 200"><rect width="200" height="200" fill="url('#gradient')"></rect><defs><linearGradient id="gradient" gradientTransform="rotate(156 0.5 0.5)"><stop offset="0%" stop-color="#000000"></stop><stop offset="100%" stop-color="#000000"></stop></linearGradient></defs><g><g fill="#ff00a4" transform="matrix(3.943301925440393,0,0,3.943301925440393,1.7702390587852506,128.0215338329173)" stroke="#ffffff" stroke-width="0"><path d="M8.87 0L6.36-5.02L4.50-5.02L4.50 0L1.07 0L1.07-14.22L6.67-14.22Q9.20-14.22 10.63-13.10Q12.05-11.97 12.05-9.92L12.05-9.92Q12.05-8.44 11.45-7.46Q10.85-6.48 9.57-5.88L9.57-5.88L12.54-0.15L12.54 0L8.87 0ZM4.50-11.57L4.50-7.67L6.67-7.67Q7.65-7.67 8.14-8.18Q8.63-8.69 8.63-9.61Q8.63-10.53 8.13-11.05Q7.64-11.57 6.67-11.57L6.67-11.57L4.50-11.57ZM16.63-14.22L19.45-3.87L22.29-14.22L26.11-14.22L21.33 0L17.58 0L12.83-14.22L16.63-14.22ZM30.58-14.22L30.58-2.64L36.54-2.64L36.54 0L27.15 0L27.15-14.22L30.58-14.22ZM45.32-3.78L45.32-3.78Q45.32-4.53 44.79-4.95Q44.26-5.37 42.92-5.82Q41.58-6.27 40.73-6.69L40.73-6.69Q37.97-8.05 37.97-10.42L37.97-10.42Q37.97-11.60 38.66-12.50Q39.35-13.41 40.61-13.91Q41.87-14.41 43.44-14.41L43.44-14.41Q44.97-14.41 46.19-13.87Q47.40-13.32 48.08-12.31Q48.75-11.30 48.75-10L48.75-10L45.33-10Q45.33-10.87 44.80-11.35Q44.27-11.83 43.36-11.83L43.36-11.83Q42.44-11.83 41.91-11.42Q41.38-11.02 41.38-10.39L41.38-10.39Q41.38-9.84 41.96-9.40Q42.55-8.96 44.02-8.48Q45.50-8.01 46.45-7.46L46.45-7.46Q48.75-6.13 48.75-3.80L48.75-3.80Q48.75-1.93 47.34-0.87Q45.94 0.20 43.49 0.20L43.49 0.20Q41.76 0.20 40.36-0.42Q38.96-1.04 38.25-2.12Q37.54-3.20 37.54-4.61L37.54-4.61L40.98-4.61Q40.98-3.47 41.57-2.92Q42.16-2.38 43.49-2.38L43.49-2.38Q44.34-2.38 44.83-2.75Q45.32-3.12 45.32-3.78Z"></path></g></g></svg></svg><style>@media (prefers-color-scheme: light) { :root { filter: none; } }
@media (prefers-color-scheme: dark) { :root { filter: none; } }
</style></svg>